Coordinates
version=1
nRows=13
nColumns=34
inDegrees=yes

Units are S.I. units (second, meters, Newtons, ...)
If the header above contains a line with 'inDegrees', this indicates whether rotational values are in degrees (yes) or radians (no).

endheader
time	pelvis_tilt	pelvis_list	pelvis_rotation	pelvis_tx	pelvis_ty	pelvis_tz	hip_flexion_r	hip_adduction_r	hip_rotation_r	knee_angle_r	ankle_angle_r	subtalar_angle_r	mtp_angle_r	hip_flexion_l	hip_adduction_l	hip_rotation_l	knee_angle_l	ankle_angle_l	subtalar_angle_l	mtp_angle_l	lumbar_extension	lumbar_bending	lumbar_rotation	arm_flex_r	arm_add_r	arm_rot_r	elbow_flex_r	pro_sup_r	arm_flex_l	arm_add_l	arm_rot_l	elbow_flex_l	pro_sup_l
      7.20000000	    -46.46648320	     24.28085575	    -46.77666971	     -0.59523444	      0.91454627	     -0.20877223	     55.24966351	     13.72232537	    -14.52817102	      0.00000000	     50.00000000	     35.00000000	      0.00000000	     86.33031468	    -49.74923282	    -23.59095936	     71.74582899	     31.94647929	      9.05139905	      0.00000000	     11.65187334	    -26.42097756	     43.03332202	    111.71132178	     12.20063878	     48.46927177	    103.18198334	     87.46454083	    106.18169429	     10.26047883	     60.52493711	    114.26359239	     75.78992244
      7.21666670	    -46.38950826	     24.36007236	    -46.94482099	     -0.57919140	      0.91487478	     -0.20883666	     54.75848188	     13.61861724	    -12.11841505	      0.00000000	     50.00000000	     35.00000000	      0.00000000	     86.76089869	    -50.00000023	    -23.13392239	     73.39810632	     30.92987273	      8.66311814	      0.00000000	     11.40815975	    -26.69035889	     43.62222751	    111.71441299	     11.77724329	     48.59618019	    103.08799812	     87.29045412	    105.84922186	     10.35870238	     59.15020317	    113.21688031	     75.55779321
      7.23333330	    -46.55339578	     25.07244241	    -46.38193781	     -0.59211599	      0.90596664	     -0.21033943	     55.79043332	     12.78415235	    -11.90514614	      0.00000000	     50.00000000	     35.00000000	      0.00000000	     88.90001528	    -50.00000023	    -22.24327136	     74.51237205	     31.52440355	      9.84666714	      0.00000000	     11.15126422	    -28.11611523	     43.69972980	    113.19917640	     10.84576603	     48.95346049	    102.71235523	     86.95690492	    106.58585416	     11.14597838	     58.12838873	    111.89836998	     75.26192447
      7.25000000	    -47.09800715	     24.00603670	    -45.36991267	     -0.57723667	      0.90520557	     -0.20903611	     55.03245142	     12.41773257	     -9.64324969	      0.00000000	     50.00000000	     35.00000000	      0.00000000	     90.11228795	    -50.00000023	    -21.26406028	     75.73164161	     30.43296664	      9.19656040	      0.00000000	      9.94991355	    -27.26765008	     43.17950554	    112.76775592	     10.26578678	     49.96178860	    103.47984353	     86.66319168	    105.41088119	     11.28355284	     57.70062792	    111.17027035	     75.03583441
      7.26666670	    -47.98561573	     23.07074725	    -43.38760015	     -0.57613430	      0.89643275	     -0.20812522	     54.88821750	     11.37677472	     -9.47898082	      0.00000000	     50.00000000	     35.00000000	      0.00000000	     91.04346571	    -49.27261218	    -20.40813001	     77.02705635	     30.64604892	     10.08723950	      0.00000000	      8.57496725	    -26.87481979	     41.55226429	    113.36739108	      9.90857824	     50.31427606	    104.15871765	     86.43943794	    105.35944097	     11.89528721	     57.37622444	    110.49023345	     74.92223791
      7.28333330	    -48.87111773	     23.34509397	    -43.30995764	     -0.58210586	      0.88856394	     -0.20808201	     56.10275806	     11.85832587	    -10.80034625	      0.00000000	     50.00000000	     35.00000000	      0.00000000	     93.60604740	    -49.72571222	    -18.63663226	     78.19698502	     30.05597332	      8.56125826	      0.00000000	      8.77384487	    -26.82806183	     42.32400375	    114.45795802	      9.60582878	     50.72554654	    104.11842434	     85.82163146	    105.51127066	     12.15545077	     56.41219546	    110.31133862	     74.72414828
      7.30000000	    -49.85222783	     24.82333588	    -43.53439306	     -0.59652597	      0.87831373	     -0.21016442	     58.33648011	     12.48969794	    -10.73302063	      0.00000000	     50.00000000	     35.00000000	      0.00000000	     97.55911513	    -50.00000023	    -16.62979391	     79.33822201	     30.09998565	      8.16731138	      0.00000000	     10.04991237	    -27.70167118	     43.11621118	    116.39339687	      9.58891279	     50.64776696	    102.79287228	     85.28044426	    106.76938529	     12.29947619	     54.68444856	    109.68591866	     74.52344493
      7.31666670	    -51.45302281	     27.75957069	    -43.38601349	     -0.62438063	      0.86191776	     -0.21487039	     62.83211628	     12.76155752	    -10.97670319	      0.00000000	     50.00000000	     35.00000000	      0.00000000	    104.28398946	    -50.00000023	    -13.69445445	     80.49277338	     31.74843262	      8.84112011	      0.00000000	     12.51288820	    -29.58974087	     44.07547885	    119.87521707	      9.28762646	     49.92507724	    100.82185561	     84.47024903	    109.67045744	     13.00057777	     51.93521465	    108.11581155	     74.13135489
      7.33333330	    -52.81766899	     30.26566255	    -43.24867434	     -0.64683146	      0.85384079	     -0.21844432	     66.39737152	     13.34441049	     -9.87401868	      0.00000000	     50.00000000	     35.00000000	      0.00000000	    110.34955733	    -50.00000023	    -11.02803349	     81.86793248	     29.24396358	      7.43887823	      0.00000000	     14.07130510	    -31.47743580	     45.20825502	    124.27782369	      8.90144265	     49.21852619	     98.46823876	     83.60485342	    113.46087581	     14.04143694	     48.80449948	    105.82822258	     73.56942091
      7.35000000	    -53.52379901	     30.86543219	    -43.22170948	     -0.64561789	      0.84565476	     -0.21986155	     67.14537992	     13.75025075	     -7.85343817	      0.00000000	     50.00000000	     35.00000000	      0.00000000	    112.74530258	    -50.00000023	     -9.58889811	     82.74156505	     28.63467419	      7.25236796	      0.00000000	     14.32238278	    -31.83221496	     45.85332627	    126.46965592	      8.15721732	     49.13336016	     97.50988905	     82.31436563	    114.89596284	     14.68189720	     47.21638163	    104.30345011	     72.78879909
      7.36666670	    -54.70457687	     33.52542850	    -42.68119941	     -0.67674482	      0.83161296	     -0.22192646	     70.84745370	     13.53224062	     -7.66873290	      0.00000000	     50.00000000	     35.00000000	      0.00000000	    117.25258244	    -50.00000023	     -8.17713629	     84.21129861	     28.74136866	      8.30713974	      0.00000000	     15.70375164	    -34.07059803	     46.43299367	    130.46307395	      8.31191330	     48.72366235	     95.17564906	     81.77060394	    118.59445697	     15.22743716	     45.04587761	    102.79778020	     72.41671738
      7.38333330	    -55.54115833	     35.71328931	    -42.62651491	     -0.68498460	      0.82697209	     -0.22364289	     73.53972269	     14.29101040	     -7.35718451	      0.00000000	     50.00000000	     35.00000000	      0.00000000	    119.99999986	    -50.00000023	     -7.24865177	     84.33020305	     26.70453304	      5.58264558	      0.00000000	     16.96988487	    -35.78197722	     48.23556958	    133.79619768	      7.77787038	     49.50592030	     92.86753668	     80.73459922	    121.09925648	     15.74817909	     42.59587023	    100.98827428	     71.58080554
      7.40000000	    -55.91945872	     36.56525014	    -42.45367277	     -0.68972070	      0.82633888	     -0.22246372	     74.17634135	     14.56584249	     -5.14170660	      0.00000000	     50.00000000	     35.00000000	      0.00000000	    119.99999986	    -50.00000023	     -7.75954554	     83.81540489	     26.61116167	      6.29957558	      0.00000000	     16.89776116	    -36.97331887	     48.81174097	    135.86911631	      7.43123328	     50.26693502	     91.78459498	     80.27879230	    122.51512028	     15.93675910	     41.77160733	    100.43114373	     71.23825636
